<svg id="Capa_1" enable-background="new 0 0 512 512" height="512" viewBox="0 0 512 512" width="512" xmlns="http://www.w3.org/2000/svg" xmlns:xlink="http://www.w3.org/1999/xlink"><linearGradient id="SVGID_1_" gradientUnits="userSpaceOnUse" x1="256" x2="256" y1="512" y2="0"><stop offset="0" stop-color="#009efd"/><stop offset="1" stop-color="#2af598"/></linearGradient><g><g><path d="m512 260c0-143.692-116.283-260-260-260-28.222 0-55.984 4.5-82.518 13.373l12.687 37.935c22.435-7.504 45.93-11.308 69.831-11.308 121.309 0 220 98.692 220 220 0 54.218-19.893 106.304-56.014 146.662l-29.839 33.338h125.853v-40h-40.885c26.57-41.543 40.885-90.007 40.885-140zm-252 212c-121.309 0-220-98.692-220-220 0-54.218 19.893-106.304 56.014-146.662l29.839-33.338h-125.853v40h40.885c-26.57 41.543-40.885 90.007-40.885 140 0 143.692 116.283 260 260 260 30.094 0 59.597-5.102 87.687-15.163l-13.488-37.657c-23.751 8.507-48.715 12.82-74.199 12.82zm76-316c0-44.112-35.888-80-80-80s-80 35.888-80 80v40h-40v200h240v-200h-40zm-120 0c0-22.056 17.944-40 40-40s40 17.944 40 40v40h-80zm120 200h-160v-120h160zm-80-40c11.046 0 20-8.954 20-20s-8.954-20-20-20-20 8.954-20 20 8.954 20 20 20z" fill="url(#SVGID_1_)"/></g></g></svg>